<?xml version="1.0" encoding="UTF-8"?>
<svg id="a" data-name="Layer_1" xmlns="http://www.w3.org/2000/svg" xmlns:xlink="http://www.w3.org/1999/xlink" viewBox="0 0 488.89 513.78">
  <defs>
    <filter id="b" data-name="drop-shadow-1" x="133.45" y="103.41" width="236" height="293" filterUnits="userSpaceOnUse">
      <feOffset dx="0" dy="0"/>
      <feGaussianBlur result="c" stdDeviation="5"/>
      <feFlood flood-color="#000" flood-opacity=".75"/>
      <feComposite in2="c" operator="in"/>
      <feComposite in="SourceGraphic"/>
    </filter>
  </defs>
  <polygon points="237.88 176.49 293.14 51.39 286.39 187.98 404.63 119.25 318.88 225.8 454.93 239.69 322.94 275.49 424.84 366.7 297.02 318.07 325.85 451.76 251.01 337.29 195.76 462.39 202.5 325.79 84.27 394.52 170.01 287.98 33.96 274.08 165.95 238.29 64.05 147.08 191.88 195.7 163.05 62.02 237.88 176.49" fill="#c600a4"/>
  <polygon points="253.68 163.63 342.89 32.16 306.73 186.87 456.18 132.94 335.99 236.85 488.6 281.07 330.29 294.49 427.76 419.96 291.79 337.76 296.9 496.56 235.21 350.15 146 481.62 182.16 326.91 32.71 380.84 152.9 276.92 .29 232.71 158.61 219.29 61.13 93.82 197.1 176.01 191.99 17.21 253.68 163.63" fill="#a700c4"/>
  <polygon points="214.28 163.52 244.87 0 274.92 163.62 395.79 49.31 323.92 199.34 488.89 177.91 342.57 257.05 488.63 336.68 323.73 314.69 395.1 464.96 274.61 350.26 244.02 513.78 213.97 350.16 93.11 464.46 164.97 314.43 0 335.86 146.32 256.72 .26 177.1 165.16 199.08 93.8 48.81 214.28 163.52" fill="#fe489e"/>
  <polygon points="222.78 189.84 244.75 72.41 266.33 189.91 353.13 107.82 301.52 215.57 419.99 200.17 314.91 257 419.8 314.18 301.38 298.4 352.63 406.31 266.11 323.94 244.14 441.36 222.56 323.87 135.77 405.95 187.37 298.21 68.91 313.6 173.98 256.77 69.1 199.59 187.51 215.38 136.26 107.46 222.78 189.84" fill="#c4008d"/>
  <g filter="url(#b)">
    <path d="M278.29,126.63h-111.87c-5.64,0-10.22,4.58-10.22,10.22v226.2c0,5.64,4.58,10.22,10.22,10.22h170.05c5.64,0,10.22-4.58,10.22-10.22v-168.02c0-2.71-1.08-5.31-2.99-7.23l-58.18-58.18c-1.92-1.92-4.52-2.99-7.23-2.99Z" fill="#eaeaea" stroke="#000" stroke-miterlimit="10" stroke-width="15"/>
    <rect x="181.76" y="147.18" width="41.11" height="41.11" rx="12" ry="12" fill="#fc54e8" stroke="#000" stroke-miterlimit="10" stroke-width="10"/>
    <line x1="182.26" y1="212.85" x2="317.61" y2="212.85" fill="none" stroke="#000" stroke-linecap="round" stroke-miterlimit="10" stroke-width="10"/>
    <line x1="182.26" y1="232.9" x2="317.61" y2="232.9" fill="none" stroke="#000" stroke-linecap="round" stroke-miterlimit="10" stroke-width="10"/>
    <line x1="182.26" y1="252.95" x2="317.61" y2="252.95" fill="none" stroke="#000" stroke-linecap="round" stroke-miterlimit="10" stroke-width="10"/>
    <line x1="182.26" y1="273.01" x2="317.61" y2="273.01" fill="none" stroke="#000" stroke-linecap="round" stroke-miterlimit="10" stroke-width="10"/>
    <line x1="182.26" y1="293.06" x2="317.61" y2="293.06" fill="none" stroke="#000" stroke-linecap="round" stroke-miterlimit="10" stroke-width="10"/>
    <line x1="182.26" y1="313.11" x2="317.61" y2="313.11" fill="none" stroke="#000" stroke-linecap="round" stroke-miterlimit="10" stroke-width="10"/>
    <line x1="182.26" y1="333.16" x2="258.46" y2="333.16" fill="none" stroke="#000" stroke-linecap="round" stroke-miterlimit="10" stroke-width="10"/>
    <path d="M284.85,120.51h-3.63c-5.38,0-9.73,4.36-9.73,9.73v58.94c0,5.38,4.36,9.73,9.73,9.73h61.74c5.38,0,9.73-4.36,9.73-9.73v-.83l-67.85-67.85Z"/>
  </g>
</svg>