<?xml version="1.0" standalone="no"?>
<!DOCTYPE svg PUBLIC "-//W3C//DTD SVG 20010904//EN"
 "http://www.w3.org/TR/2001/REC-SVG-20010904/DTD/svg10.dtd">
<svg version="1.0" xmlns="http://www.w3.org/2000/svg"
 width="515.000000pt" height="515.000000pt" viewBox="0 0 515.000000 515.000000"
 preserveAspectRatio="xMidYMid meet">
<metadata>
Created by potrace 1.14, written by Peter Selinger 2001-2017
</metadata>
<g transform="translate(0.000000,515.000000) scale(0.100000,-0.100000)"
fill="#000000" stroke="none">
<path d="M2485 4650 c-50 -264 -92 -480 -95 -480 -3 0 -80 176 -170 391 l-165
391 -2 -78 c-2 -44 3 -249 10 -457 6 -207 11 -377 11 -377 -1 0 -70 106 -155
235 -84 129 -154 233 -156 232 -1 -2 22 -118 52 -258 30 -140 55 -262 55 -271
0 -14 -9 -18 -39 -18 -38 0 -52 12 -378 323 -336 320 -382 361 -372 342 39
-75 410 -867 408 -869 -2 -1 -170 98 -373 221 -203 123 -369 223 -371 221 -1
-2 123 -164 276 -361 154 -197 279 -360 279 -362 0 -5 -24 3 -297 108 -123 47
-223 84 -223 82 0 -3 462 -419 479 -432 18 -13 -71 -4 -554 61 -303 41 -551
73 -552 72 -2 -2 190 -108 427 -237 236 -129 426 -235 422 -236 -8 -3 -830
-73 -851 -73 -8 0 -12 -2 -10 -4 2 -2 199 -61 438 -130 239 -69 436 -127 438
-129 1 -2 -121 -37 -271 -78 -151 -41 -274 -75 -273 -76 1 0 149 -16 329 -34
181 -18 328 -35 328 -38 0 -4 -221 -125 -490 -270 -269 -146 -489 -266 -487
-267 1 -1 218 26 482 60 264 35 481 62 482 61 1 0 -146 -129 -327 -285 -181
-157 -327 -286 -326 -287 2 -2 196 67 432 152 236 85 430 155 432 155 1 0 -71
-91 -160 -202 -90 -112 -172 -214 -183 -228 l-20 -25 35 22 c139 84 542 314
546 311 2 -2 -91 -202 -207 -444 -116 -241 -224 -468 -241 -504 l-29 -65 43
41 c48 45 583 549 639 601 l36 34 -98 -418 c-54 -230 -97 -421 -96 -425 1 -5
117 161 257 368 193 285 256 371 258 353 1 -13 -4 -139 -11 -279 -8 -140 -13
-256 -12 -258 1 -1 62 133 135 298 73 165 135 298 138 295 3 -3 51 -253 107
-556 l101 -550 89 481 c50 264 92 480 95 480 3 0 80 -176 170 -391 l165 -391
2 78 c2 44 -3 249 -10 457 -6 207 -11 377 -11 377 1 0 71 -106 155 -235 84
-129 154 -233 156 -231 2 2 -86 418 -125 594 -6 24 -6 42 -1 40 4 -2 171 -159
371 -349 200 -190 380 -360 401 -379 l39 -34 -15 35 c-8 19 -90 192 -182 384
-223 466 -220 459 -199 451 9 -3 176 -103 371 -221 196 -119 357 -214 358
-213 1 2 -123 164 -277 362 -154 197 -278 359 -276 361 2 2 120 -41 263 -96
143 -54 261 -99 263 -99 1 0 -105 97 -237 215 -235 211 -260 235 -244 235 4 0
253 -34 553 -74 300 -40 546 -72 547 -71 2 1 -190 107 -426 236 -236 128 -429
235 -428 236 3 2 828 73 853 73 10 0 15 2 13 5 -3 2 -200 61 -439 130 -239 69
-436 127 -437 129 -2 2 120 36 271 77 151 41 274 75 273 76 -1 1 -149 16 -329
34 -181 19 -328 36 -328 39 0 3 221 124 490 270 269 145 488 265 487 266 -2 2
-737 -91 -939 -119 -16 -2 -28 -3 -28 -2 0 1 148 129 329 286 181 156 328 285
327 287 -2 2 -754 -267 -850 -304 -11 -4 63 96 164 221 137 171 175 224 149
208 -169 -102 -541 -314 -545 -311 -2 3 89 198 202 434 113 236 222 463 241
504 l34 75 -38 -36 c-46 -42 -580 -545 -641 -603 -24 -23 -41 -34 -38 -26 11
30 196 833 193 836 -2 2 -118 -166 -258 -373 -192 -283 -255 -370 -257 -352
-1 13 4 139 11 279 8 140 13 256 12 258 -1 1 -62 -133 -135 -298 -73 -165
-135 -298 -138 -295 -3 3 -51 253 -107 556 l-101 550 -89 -481z m355 -1135 c0
-191 4 -292 11 -309 24 -52 51 -56 373 -56 l296 0 -2 -827 -3 -828 -875 0
-875 0 -3 1130 c-1 622 0 1140 3 1153 l5 22 535 0 535 0 0 -285z"/>
<path d="M1980 3699 c-20 -11 -47 -37 -60 -56 -22 -33 -25 -49 -29 -151 -4
-132 6 -177 50 -227 39 -44 79 -55 212 -55 210 0 265 61 255 284 -5 106 -17
143 -60 183 -38 36 -73 43 -206 43 -110 0 -132 -3 -162 -21z m295 -104 c23
-22 25 -31 25 -128 0 -148 -3 -152 -148 -152 -151 0 -152 1 -152 151 0 110 1
113 26 133 23 18 41 21 126 21 92 0 101 -2 123 -25z"/>
<path d="M1922 3054 c-28 -20 -28 -58 0 -78 20 -14 103 -16 703 -16 741 0 725
-1 725 55 0 56 16 55 -725 55 -600 0 -683 -2 -703 -16z"/>
<path d="M1922 2854 c-28 -20 -28 -58 0 -78 20 -14 103 -16 703 -16 741 0 725
-1 725 55 0 56 16 55 -725 55 -600 0 -683 -2 -703 -16z"/>
<path d="M1922 2654 c-28 -20 -28 -58 0 -78 20 -14 103 -16 703 -16 741 0 725
-1 725 55 0 56 16 55 -725 55 -600 0 -683 -2 -703 -16z"/>
<path d="M1930 2457 c-34 -17 -39 -60 -8 -81 20 -14 96 -16 703 -16 607 0 683
2 703 16 31 21 26 64 -8 81 -19 10 -177 13 -695 13 -518 0 -676 -3 -695 -13z"/>
<path d="M1912 2248 c-18 -18 -15 -53 6 -71 17 -16 81 -17 709 -17 656 0 691
1 706 18 20 22 22 53 5 70 -17 17 -1409 17 -1426 0z"/>
<path d="M1912 2048 c-17 -17 -15 -54 4 -72 14 -14 92 -16 708 -16 659 0 694
1 709 18 20 22 22 53 5 70 -17 17 -1409 17 -1426 0z"/>
<path d="M1912 1848 c-17 -17 -15 -54 4 -72 13 -14 65 -16 413 -16 373 0 399
1 414 18 20 22 22 53 5 70 -17 17 -819 17 -836 0z"/>
</g>
</svg>
